<svg width="32" height="32" viewBox="0 0 32 32" fill="none" xmlns="http://www.w3.org/2000/svg">
  <!-- 五行蛇 Favicon - 简化版Logo -->
  <g>
    <!-- 圆形背景 -->
    <circle cx="16" cy="16" r="16" fill="#281f3e"/>
    
    <!-- 五行蛇组合 -->
    <g transform="scale(0.5) translate(8, 8)">
      <!-- 金蛇 -->
      <path d="M8 12C10 10 12 10 12 12C12 14 16 16 12 18C8 20 6 18 8 12Z" fill="#FFD700" filter="url(#filter-gold-small)"/>
      <!-- 木蛇 -->
      <path d="M16 14C18 12 20 12 20 14C20 16 24 18 20 20C16 22 14 20 16 14Z" fill="#4CAF50" filter="url(#filter-wood-small)"/>
      <!-- 水蛇 -->
      <path d="M24 12C26 10 28 10 28 12C28 14 32 16 28 18C24 20 22 18 24 12Z" fill="#2196F3" filter="url(#filter-water-small)"/>
      <!-- 火蛇 -->
      <path d="M32 14C34 12 36 12 36 14C36 16 40 18 36 20C32 22 30 20 32 14Z" fill="#F44336" filter="url(#filter-fire-small)"/>
      <!-- 土蛇 -->
      <path d="M40 12C42 10 44 10 44 12C44 14 48 16 44 18C40 20 38 18 40 12Z" fill="#8D6E63" filter="url(#filter-earth-small)"/>
    </g>
  </g>
  <defs>
    <!-- 滤镜效果 -->
    <filter id="filter-gold-small" x="-4" y="-4" width="24" height="24" filterUnits="userSpaceOnUse" color-interpolation-filters="sRGB">
      <feFlood flood-opacity="0" result="BackgroundImageFix"/>
      <feColorMatrix in="SourceAlpha" type="matrix" values="0 0 0 0 0 0 0 0 0 0 0 0 0 0 0 0 0 0 127 0"/>
      <feOffset/>
      <feGaussianBlur stdDeviation="1"/>
      <feColorMatrix type="matrix" values="0 0 0 0 1 0 0 0 0 0.84 0 0 0 0 0 0 0 0 1 0"/>
      <feBlend mode="normal" in2="BackgroundImageFix" result="effect1_dropShadow"/>
      <feBlend mode="normal" in="SourceGraphic" in2="effect1_dropShadow" result="shape"/>
    </filter>
    <filter id="filter-wood-small" x="-4" y="-4" width="24" height="24" filterUnits="userSpaceOnUse" color-interpolation-filters="sRGB">
      <feFlood flood-opacity="0" result="BackgroundImageFix"/>
      <feColorMatrix in="SourceAlpha" type="matrix" values="0 0 0 0 0 0 0 0 0 0 0 0 0 0 0 0 0 0 127 0"/>
      <feOffset/>
      <feGaussianBlur stdDeviation="1"/>
      <feColorMatrix type="matrix" values="0 0 0 0 0.3 0 0 0 0 0.69 0 0 0 0 0.31 0 0 0 1 0"/>
      <feBlend mode="normal" in2="BackgroundImageFix" result="effect1_dropShadow"/>
      <feBlend mode="normal" in="SourceGraphic" in2="effect1_dropShadow" result="shape"/>
    </filter>
    <filter id="filter-water-small" x="-4" y="-4" width="24" height="24" filterUnits="userSpaceOnUse" color-interpolation-filters="sRGB">
      <feFlood flood-opacity="0" result="BackgroundImageFix"/>
      <feColorMatrix in="SourceAlpha" type="matrix" values="0 0 0 0 0 0 0 0 0 0 0 0 0 0 0 0 0 0 127 0"/>
      <feOffset/>
      <feGaussianBlur stdDeviation="1"/>
      <feColorMatrix type="matrix" values="0 0 0 0 0.13 0 0 0 0 0.59 0 0 0 0 0.95 0 0 0 1 0"/>
      <feBlend mode="normal" in2="BackgroundImageFix" result="effect1_dropShadow"/>
      <feBlend mode="normal" in="SourceGraphic" in2="effect1_dropShadow" result="shape"/>
    </filter>
    <filter id="filter-fire-small" x="-4" y="-4" width="24" height="24" filterUnits="userSpaceOnUse" color-interpolation-filters="sRGB">
      <feFlood flood-opacity="0" result="BackgroundImageFix"/>
      <feColorMatrix in="SourceAlpha" type="matrix" values="0 0 0 0 0 0 0 0 0 0 0 0 0 0 0 0 0 0 127 0"/>
      <feOffset/>
      <feGaussianBlur stdDeviation="1"/>
      <feColorMatrix type="matrix" values="0 0 0 0 0.96 0 0 0 0 0.26 0 0 0 0 0.21 0 0 0 1 0"/>
      <feBlend mode="normal" in2="BackgroundImageFix" result="effect1_dropShadow"/>
      <feBlend mode="normal" in="SourceGraphic" in2="effect1_dropShadow" result="shape"/>
    </filter>
    <filter id="filter-earth-small" x="-4" y="-4" width="24" height="24" filterUnits="userSpaceOnUse" color-interpolation-filters="sRGB">
      <feFlood flood-opacity="0" result="BackgroundImageFix"/>
      <feColorMatrix in="SourceAlpha" type="matrix" values="0 0 0 0 0 0 0 0 0 0 0 0 0 0 0 0 0 0 127 0"/>
      <feOffset/>
      <feGaussianBlur stdDeviation="1"/>
      <feColorMatrix type="matrix" values="0 0 0 0 0.55 0 0 0 0 0.43 0 0 0 0 0.38 0 0 0 1 0"/>
      <feBlend mode="normal" in2="BackgroundImageFix" result="effect1_dropShadow"/>
      <feBlend mode="normal" in="SourceGraphic" in2="effect1_dropShadow" result="shape"/>
    </filter>
  </defs>
</svg>

